# xmcd
#
# Track frame offsets: 
#        182
#        12347
#        24142
#        43337
#        56437
#        68902
#        85112
#        98740
#        111462
#        123960
#        137612
#        150695
#
# Disc length: 2170 seconds
#
# Revision: 2
# Processed by: cddbd v1.4PL0 Copyright (c) Steve Scherf et al.
# Submitted via: ExactAudioCopy v0.90b4
#
DISCID=9608780c
DTITLE=Reba McEntire - Forever In Your Eyes
DYEAR=1900
DGENRE=Country
TTITLE0=I Can See Forever In Your Eyes
TTITLE1=There Ain't No Future In This
TTITLE2=You Really Better Love Me After This
TTITLE3=Gonna Love Ya (Till The Cows Come Home)
TTITLE4=I'm Not That Lonely Yet
TTITLE5=Why Can't He Be You
TTITLE6=I'd Say You
TTITLE7=Whoever's Watchin'
TTITLE8=You Lift Me Up To Heaven
TTITLE9=I've Waited All My Life For You
TTITLE10=You're The First Time I've Thought About Leaving
TTITLE11=One To One
EXTD=
EXTT0=
EXTT1=
EXTT2=
EXTT3=
EXTT4=
EXTT5=
EXTT6=
EXTT7=
EXTT8=
EXTT9=
EXTT10=
EXTT11=
PLAYORDER=
